<svg  viewBox="0 0 20 20" fill="none" xmlns="http://www.w3.org/2000/svg">
<g clip-path="url(#clip0_141_1475)">
<path d="M3.89933 13.3369L7.81074 11.1423L7.87651 10.9517L7.81074 10.8456H7.62013L6.96644 10.8053L4.73154 10.7449L2.79329 10.6644L0.915436 10.5637L0.442953 10.4631L0 9.87917L0.0456381 9.5879L0.442953 9.32078L1.01208 9.37045L2.2698 9.45635L4.15705 9.58656L5.52617 9.66709L7.55436 9.87783H7.87651L7.92215 9.74763L7.81208 9.66709L7.72618 9.58656L5.77316 8.26306L3.65906 6.86441L2.55168 6.05904L1.95302 5.65098L1.65101 5.26843L1.52081 4.43354L2.06443 3.83488L2.79463 3.88454L2.98121 3.93421L3.72081 4.50334L5.30067 5.72615L7.36376 7.24562L7.66577 7.49662L7.78658 7.41072L7.80134 7.35031L7.66577 7.12347L6.54362 5.09528L5.34631 3.03219L4.81342 2.17716L4.67248 1.66441C4.62282 1.45367 4.58658 1.27649 4.58658 1.06038L5.20537 0.220113L5.54765 0.110046L6.37316 0.220113L6.72081 0.522127L7.23356 1.69528L8.06443 3.54226L9.35302 6.05367L9.7302 6.79863L9.93154 7.48857L10.0067 7.69931H10.1369V7.5785L10.243 6.16374L10.4389 4.42682L10.6295 2.19192L10.6953 1.5624L11.0067 0.808032L11.6255 0.39998L12.1087 0.630851L12.506 1.19998L12.451 1.56776L12.2148 3.10333L11.7517 5.5087L11.4497 7.11944H11.6255L11.8268 6.9181L12.6416 5.83622L14.0107 4.12481L14.6148 3.44562L15.3195 2.69528L15.7718 2.33823H16.6268L17.2564 3.2738L16.9745 4.24025L16.094 5.35702L15.3638 6.30334L14.3168 7.71273L13.6631 8.84025L13.7235 8.93018L13.8792 8.91541L16.2443 8.41206L17.5222 8.18119L19.047 7.91944L19.7369 8.24159L19.8121 8.5691L19.5409 9.2389L17.9101 9.64159L15.9973 10.0241L13.149 10.698L13.1141 10.7235L13.1544 10.7731L14.4376 10.8939L14.9866 10.9235H16.3302L18.8322 11.11L19.4859 11.5423L19.8779 12.0711L19.8121 12.4738L18.8054 12.9866L17.447 12.6644L14.2765 11.91L13.1893 11.6389H13.0389V11.7288L13.945 12.6147L15.6054 14.1141L17.6846 16.047L17.7906 16.5248L17.5235 16.902L17.2416 16.8617L15.4148 15.4872L14.7101 14.8684L13.1141 13.5248H13.0081V13.6657L13.3758 14.204L15.3181 17.1235L15.4188 18.0188L15.2779 18.31L14.7745 18.4859L14.2215 18.3852L13.0846 16.7892L11.9114 14.9919L10.9651 13.3812L10.8497 13.447L10.2913 19.4617L10.0295 19.7691L9.4255 20L8.92215 19.6174L8.65504 18.9986L8.92215 17.7758L9.2443 16.1798L9.50604 14.9114L9.74228 13.3355L9.88322 12.8121L9.87383 12.7772L9.75839 12.7919L8.57047 14.4228L6.76376 16.8644L5.33423 18.3946L4.99195 18.5302L4.39866 18.2228L4.45369 17.6738L4.78524 17.1852L6.76376 14.6684L7.95705 13.1087L8.72752 12.208L8.72215 12.0778H8.67651L3.42148 15.4899L2.48591 15.6107L2.08322 15.2335L2.13289 14.6147L2.32349 14.4134L3.90336 13.3262L3.89799 13.3315L3.89933 13.3369Z" fill="#D97757"/>
</g>
<defs>
<clipPath id="clip0_141_1475">
<rect width="20" height="20" fill="white"/>
</clipPath>
</defs>
</svg>
