<svg viewBox="0 0 22 16" fill="none" xmlns="http://www.w3.org/2000/svg">
<path d="M12.3577 4.51665C12.4459 4.39205 12.5969 4.32562 12.7474 4.35099C13.02 4.39693 13.1426 4.70627 12.9838 4.93246C12.8062 5.18536 12.6278 5.43932 12.4745 5.67177C12.411 5.76809 12.2152 6.04974 12.0643 6.25312C11.9641 6.38823 11.793 6.44585 11.6292 6.40732C11.3316 6.33729 11.2386 6.00497 11.4271 5.7642C11.4777 5.69957 11.5262 5.63705 11.5683 5.57922C11.8216 5.23148 12.1051 4.87346 12.3577 4.51665Z" fill="currentColor"/>
<path fill-rule="evenodd" clip-rule="evenodd" d="M16.3916 3.93845C16.5429 3.92112 16.7181 3.92904 16.8695 3.93247C17.917 3.95628 18.5124 4.5701 18.4335 5.63482C18.3762 6.40654 17.797 6.88533 17.0212 6.82575C15.9601 6.68385 14.9363 5.4655 15.316 4.38283C15.2216 4.3437 15.122 4.32551 15.1417 4.20367C15.2515 4.1003 15.3469 4.16521 15.4319 4.25796C15.7453 4.04268 16.0179 3.9839 16.3916 3.93845ZM18.091 5.10328C17.9815 4.3163 17.1296 4.13915 16.4634 4.23015C15.9505 4.28189 15.4625 4.42166 15.5425 5.07449C15.5935 5.4913 15.9368 5.94641 16.2573 6.20477C16.5738 6.44114 16.8411 6.54095 17.2312 6.5395C18.0468 6.39854 18.1946 5.84779 18.091 5.10328Z" fill="currentColor"/>
<path d="M16.8527 4.58071C16.9312 4.4716 17.0836 4.42322 17.2147 4.45246C17.4437 4.50352 17.4923 4.78077 17.3761 4.98462C17.3318 5.0624 17.2887 5.13875 17.2488 5.20711L16.8838 5.81163C16.7429 6.04483 16.4873 6.1582 16.2895 5.97081C16.1667 5.85435 16.172 5.6726 16.2616 5.52895C16.4482 5.22968 16.6638 4.84351 16.8527 4.58071Z" fill="currentColor"/>
<path d="M7.81931 4.37901C7.87293 4.3783 8.16064 4.41734 8.23888 4.42518C8.52449 4.45362 8.81081 4.47423 9.09753 4.48699C9.08897 4.49755 9.08055 4.50821 9.07226 4.51897C8.7838 4.89516 8.8599 5.35173 8.91555 5.78915C8.83424 5.78432 8.77268 5.77305 8.69321 5.75941C8.26353 5.68566 7.9003 5.62042 7.50104 5.55032C7.13013 5.48517 7.3816 4.97213 7.48501 4.76946C7.56503 4.61259 7.68379 4.49081 7.81931 4.37901Z" fill="currentColor"/>
<path d="M9.50219 4.4312C9.542 4.41051 9.59063 4.40048 9.63472 4.40878C9.7041 4.42184 9.76488 4.48844 9.73625 4.55297C9.69849 4.6381 9.56726 4.70066 9.52824 4.77749C9.42305 4.99397 9.42723 5.25897 9.4722 5.48954C9.4851 5.55573 9.51907 5.62011 9.55346 5.6823C9.68224 5.91523 9.35746 6.06485 9.27548 5.81163C9.14532 5.40985 9.05652 4.66279 9.50219 4.4312Z" fill="currentColor"/>
<path d="M14.63 4.48407C14.7387 4.47607 14.8415 4.48608 14.9099 4.58376C14.9355 4.61956 14.9448 4.66449 14.9355 4.70752C14.918 4.78873 14.8645 4.82502 14.7998 4.86762C14.7734 4.8719 14.7466 4.87403 14.7198 4.87394C14.494 4.87391 14.4247 4.64755 14.63 4.48407Z" fill="currentColor"/>
<path d="M9.03367 6.18368C9.17019 6.42617 9.3707 6.67484 9.58766 6.8515C10.2164 7.36334 11.0518 7.5099 11.8397 7.43458C12.5711 7.36464 13.3617 7.04002 13.8568 6.48749C14.0113 6.3257 14.1211 6.13071 14.263 5.95878C14.7242 5.40026 15.0738 6.15248 15.3927 6.43819C15.8211 6.82183 16.2484 7.1133 16.8305 7.1826C17.0443 7.20806 17.2911 7.19015 17.5047 7.18432C17.3839 7.89906 17.0545 8.39615 16.5191 8.89244C15.1106 10.1981 13.2554 10.5179 11.3979 10.45C9.37487 10.3761 6.83584 9.59781 5.43409 8.05705C5.70321 8.75472 5.90492 8.87245 6.43396 9.35662C6.40937 9.35344 6.38475 9.35076 6.36006 9.34859C5.16948 9.24362 3.66426 9.64268 2.74257 10.4125C2.81634 10.3757 2.89091 10.3405 2.96627 10.3071C4.2198 9.76404 6.14961 9.61913 7.42213 10.1202C6.62555 10.1483 5.69136 10.4339 5.10485 10.9932C4.79121 11.2888 4.56735 11.7776 4.73021 12.2092C5.10679 13.2071 6.40014 13.3126 7.28939 13.3206C7.144 13.2784 7.00119 13.2384 6.85265 13.1895C6.21981 12.981 5.28886 12.4184 5.45094 11.6242C5.53083 11.2328 5.88966 10.9789 6.21395 10.7844C7.62321 9.97556 10.2141 10.5569 11.5101 11.4053C12.255 11.8929 13.1469 12.6189 13.3852 13.5095C13.4201 13.6398 13.4288 13.8907 13.2125 13.8814C13.0139 13.8443 12.7834 13.7101 12.5849 13.6347C12.2864 13.5212 11.9793 13.4318 11.6665 13.3674C10.2029 13.0526 8.91419 13.174 7.44477 13.3222C8.35395 14.0404 9.69447 14.2758 10.8338 14.2082C10.9751 14.2008 11.1162 14.1885 11.2567 14.1714C11.381 14.1556 11.6781 14.1033 11.785 14.1168C11.7605 14.2772 11.6221 14.4697 11.498 14.5709C9.37786 16.2982 6.02362 16.353 3.59204 15.3054C1.41644 14.368 -0.137023 12.4029 0.953777 9.98509C0.440709 10.5161 0.274157 10.8892 0.0656188 11.5876C0.0411916 11.4526 0.00915119 11.3095 0.0029958 11.1729C-0.0698646 9.55618 1.25413 8.09632 2.67962 7.51088C2.98007 7.38748 3.27627 7.30519 3.58291 7.2275C3.14811 7.19902 2.47422 7.23654 2.06638 7.36843C2.1534 7.30461 2.24165 7.2425 2.33109 7.18215C3.26098 6.5575 4.20331 6.36976 5.29861 6.58203C5.37348 6.21743 5.40494 6.07903 5.5791 5.74619C5.79782 5.74039 6.01665 5.75302 6.23325 5.78394L9.03367 6.18368Z" fill="currentColor"/>
<path d="M18.1188 9.93196C19.6361 9.81879 20.7076 11.1071 20.583 12.5544C20.5246 13.2323 20.3733 13.644 19.9073 14.1343C19.956 13.8056 19.936 13.2519 19.8852 12.9286C19.6563 13.6152 19.2444 14.1304 18.6517 14.548C17.4647 15.3844 16.0663 15.5469 14.6697 15.3102C14.3479 15.2326 14.0133 15.1349 13.7227 14.9854C13.5882 14.9161 13.3771 14.8028 13.4212 14.6383C13.4297 14.6067 13.4771 14.561 13.5077 14.5522C14.396 14.2943 15.3571 14.078 16.1033 13.5019C16.544 13.1618 16.8272 12.663 17.2513 12.3085C17.4671 12.1281 17.7396 12.0003 17.9947 11.8847C17.5713 11.9486 17.3279 12.0129 17.022 12.3159C17.1442 11.4414 16.7104 11.0313 15.8448 11.2722C16.3397 10.4966 17.2141 10.017 18.1188 9.93196Z" fill="currentColor"/>
<path d="M4.54772 0.00272059C5.38974 -0.0364796 5.96971 0.349367 6.38724 1.06767C6.678 1.61404 6.81407 1.99713 7.3156 2.40452C7.92547 2.8999 8.67475 2.9471 9.42619 2.8376C9.60052 2.81217 9.87916 2.6821 10.0632 2.62424C10.4944 2.48788 10.9382 2.39484 11.3879 2.3464C13.2919 2.12504 15.1344 2.44735 16.6609 3.65306C16.4135 3.64412 15.9959 3.67568 15.7651 3.76794C15.4141 3.90832 15.281 3.93174 14.9009 3.95225C14.495 3.9863 14.0479 3.95277 13.6529 3.84537C13.3879 3.77332 13.1085 3.65815 12.8351 3.60677C11.9056 3.43218 10.8512 3.48872 9.97703 3.86157C9.70143 3.97914 9.50077 4.11154 9.25805 4.27236C8.79909 4.22435 8.02824 4.22539 7.61161 4.13821C7.89421 3.93602 8.13589 3.76632 8.4088 3.54858C7.33145 3.65255 6.26374 3.08142 5.8697 2.05457C5.69123 1.58952 5.66061 1.22651 5.31069 0.833504C4.8921 0.363394 4.25906 0.169596 3.64987 0.128874C3.95356 0.0770388 4.24034 0.0237137 4.54772 0.00272059Z" fill="currentColor"/>
<path fill-rule="evenodd" clip-rule="evenodd" d="M11.767 3.80921C12.1751 3.75562 12.9811 3.85063 13.3637 3.9784C13.5324 4.03474 13.8061 4.15327 13.9804 4.2248C14.1046 4.17854 14.2007 4.14468 14.3192 4.21812C14.3681 4.33365 14.1976 4.3574 14.1153 4.38011C14.1981 4.65269 14.2453 4.89512 14.1845 5.17813C14.0057 6.01131 13.385 6.60389 12.6112 6.89753C11.4884 7.29832 10.0412 6.82654 9.9732 5.46027C9.90873 4.16477 10.6011 3.89075 11.767 3.80921ZM13.7826 4.56876C13.4444 4.0835 12.3246 4.03181 11.803 4.08455C10.8421 4.15025 10.1575 4.37513 10.2672 5.49878C10.363 6.48072 11.437 6.86495 12.2904 6.66392C12.9224 6.48509 13.3678 6.12896 13.6972 5.5605C13.8485 5.29942 13.9613 4.82525 13.7826 4.56876Z" fill="currentColor"/>
<path d="M2.63702 0.747815C2.76786 0.738582 2.80538 0.742696 2.88489 0.738582C3.91076 0.697276 4.73432 1.19175 4.91643 2.23898C5.12065 3.41352 6.22292 4.05291 7.26108 4.33618C7.01684 4.56189 6.76849 4.79327 6.69592 5.12906C6.29494 5.06676 6.02459 4.97275 5.6655 4.7864C4.91604 4.41134 4.41972 3.81427 4.23865 2.99048C4.17937 2.72075 4.16799 2.41068 4.06844 2.15309C3.63575 1.03359 2.23679 1.266 1.28124 1.25499C0.925656 1.2593 0.911175 1.29574 0.752366 1.23056C0.602569 1.16909 0.743068 0.957877 0.899648 0.916641C1.08472 0.867902 1.31938 0.86126 1.46354 0.847565C1.97855 0.805741 2.24541 0.77545 2.63702 0.747815Z" fill="currentColor"/>
<path d="M18.3187 9.65059C16.9967 9.51446 15.4802 10.3912 14.9489 11.6097C14.912 11.6942 14.8802 11.7845 14.8496 11.8716C14.8496 11.8716 14.1782 11.8186 13.8034 11.6425C13.4285 11.4664 12.9298 10.9699 12.9298 10.9699C14.2481 10.7508 15.8154 10.1533 16.7701 9.19068L18.3187 9.65059Z" fill="currentColor"/>
<path d="M16.2465 11.4608C16.3617 11.427 16.4909 11.413 16.596 11.4712C16.8713 11.6238 16.7819 12.0995 16.7614 12.384C16.1225 12.5105 15.6174 12.9032 15.2526 13.4329L15.1286 13.6095C15.0357 13.5209 14.9493 13.4154 14.9431 13.2809C14.911 12.5773 15.5322 11.6699 16.2465 11.4608Z" fill="currentColor"/>
</svg>
