<svg width="105" height="12" viewBox="0 0 105 12" fill="none" xmlns="http://www.w3.org/2000/svg">
<path d="M6.64 11.968C4.69333 11.968 3.09867 11.4107 1.856 10.296C0.618667 9.176 0 7.74133 0 5.992C0 4.22667 0.624 2.78667 1.872 1.672C3.12533 0.557333 4.71733 0 6.648 0C7.256 0 7.82933 0.0613333 8.368 0.184C8.912 0.306667 9.41867 0.482667 9.888 0.712C10.3627 0.936 10.7573 1.17333 11.072 1.424C11.392 1.67467 11.552 1.8 11.552 1.8L9.672 4.12C9.672 4.12 9.568 4.03733 9.36 3.872C9.15733 3.70667 8.91733 3.56 8.64 3.432C8.368 3.29867 8.06667 3.19467 7.736 3.12C7.40533 3.04533 7.064 3.008 6.712 3.008C5.74133 3.008 4.94133 3.28 4.312 3.824C3.688 4.368 3.376 5.08533 3.376 5.976C3.376 6.86133 3.688 7.57867 4.312 8.128C4.936 8.67733 5.73333 8.952 6.704 8.952C7.08267 8.952 7.44267 8.912 7.784 8.832C8.13067 8.74667 8.448 8.62933 8.736 8.48C9.02933 8.33067 9.27733 8.168 9.48 7.992C9.688 7.816 9.792 7.728 9.792 7.728L11.768 9.928C11.768 9.928 11.6133 10.0747 11.304 10.368C10.9947 10.656 10.592 10.9253 10.096 11.176C9.60533 11.4267 9.06933 11.6213 8.488 11.76C7.912 11.8987 7.296 11.968 6.64 11.968Z" fill="currentColor"/>
<path d="M13.0626 11.712V0.256001H16.3586V8.792H21.9826V11.712H13.0626Z" fill="currentColor"/>
<path d="M22.3881 11.712L27.4681 0.256001H30.3561L35.4281 11.712H31.8761L29.2121 5.2L28.8681 4.24H28.8361L28.5001 5.192L25.8201 11.712H22.3881ZM24.9961 9.8L25.8201 7.72H31.8441L32.7081 9.8H24.9961Z" fill="currentColor"/>
<path d="M37.8044 11.712L34.1324 0.256001H37.5404L39.4524 6.536L39.6364 7.224H39.6684L39.8844 6.536L42.0844 0.256001H44.7164L46.8124 6.528L47.0284 7.208H47.0604L47.2604 6.528L49.1564 0.256001H52.3804L48.7084 11.712H45.7404L43.4924 5.168L43.2684 4.464H43.2364L43.0124 5.168L40.7404 11.712H37.8044Z" fill="currentColor"/>
<path d="M53.5939 11.712V0.256001H59.2499C60.6899 0.256001 61.8205 0.626667 62.6419 1.368C63.4685 2.10933 63.8819 3.13333 63.8819 4.44C63.8819 5.72533 63.4605 6.73333 62.6179 7.464C61.7752 8.18933 60.6552 8.552 59.2579 8.552H55.3939V5.952H58.9459C59.4845 5.952 59.9005 5.824 60.1939 5.568C60.4872 5.312 60.6339 4.95467 60.6339 4.496C60.6339 4.032 60.4819 3.67467 60.1779 3.424C59.8739 3.168 59.4579 3.04 58.9299 3.04H56.9059V11.712H53.5939Z" fill="currentColor"/>
<path d="M65.3595 11.712V0.256001H68.6795V11.712H65.3595Z" fill="currentColor"/>
<path d="M70.9064 11.712V0.256001H74.2024V8.792H79.8264V11.712H70.9064Z" fill="currentColor"/>
<path d="M86.9853 11.968C85.0759 11.968 83.4812 11.4107 82.2012 10.296C80.9212 9.18133 80.2812 7.74133 80.2812 5.976C80.2812 4.216 80.9212 2.78133 82.2012 1.672C83.4866 0.557333 85.0813 0 86.9853 0C88.8839 0 90.4733 0.562667 91.7533 1.688C93.0386 2.808 93.6813 4.23733 93.6813 5.976C93.6813 7.71467 93.0386 9.14933 91.7533 10.28C90.4733 11.4053 88.8839 11.968 86.9853 11.968ZM86.9853 8.968C87.9559 8.968 88.7613 8.688 89.4013 8.128C90.0466 7.568 90.3692 6.85067 90.3692 5.976C90.3692 5.10133 90.0466 4.38667 89.4013 3.832C88.7613 3.27733 87.9559 3 86.9853 3C86.0146 3 85.2066 3.27733 84.5612 3.832C83.9159 4.38667 83.5932 5.10133 83.5932 5.976C83.5932 6.856 83.9133 7.576 84.5533 8.136C85.1986 8.69067 86.0093 8.968 86.9853 8.968Z" fill="currentColor"/>
<path d="M97.6824 11.712V1.736H100.978V11.712H97.6824ZM94.0584 3.168V0.256001H104.554V3.168H94.0584Z" fill="currentColor"/>
</svg>
