<svg  viewBox="0 0 145 24" fill="none" xmlns="http://www.w3.org/2000/svg">
<path d="M18.5364 6.77499C18.6687 6.58809 18.8951 6.48844 19.1209 6.5265C19.5298 6.59541 19.7138 7.05941 19.4755 7.39871C19.2091 7.77806 18.9415 8.15899 18.7116 8.50768C18.6164 8.65215 18.3226 9.07462 18.0963 9.37969C17.946 9.58235 17.6892 9.66879 17.4436 9.611C16.9972 9.50596 16.8577 9.00747 17.1404 8.64632C17.2163 8.54938 17.2891 8.45558 17.3523 8.36884C17.7322 7.84724 18.1575 7.3102 18.5364 6.77499Z" fill="currentColor"/>
<path fill-rule="evenodd" clip-rule="evenodd" d="M24.5872 5.90769C24.8142 5.88169 25.077 5.89357 25.3041 5.89872C26.8753 5.93444 27.7685 6.85517 27.65 8.45225C27.5641 9.60982 26.6953 10.328 25.5317 10.2386C23.94 10.0258 22.4043 8.19826 22.9738 6.57426C22.8323 6.51556 22.6829 6.48828 22.7124 6.30552C22.8771 6.15047 23.0202 6.24783 23.1476 6.38695C23.6178 6.06404 24.0266 5.97587 24.5872 5.90769ZM27.1363 7.65494C26.972 6.47446 25.6942 6.20873 24.6949 6.34524C23.9256 6.42284 23.1936 6.63251 23.3135 7.61175C23.3901 8.23697 23.905 8.91963 24.3857 9.30717C24.8606 9.66172 25.2615 9.81145 25.8467 9.80926C27.07 9.59782 27.2917 8.7717 27.1363 7.65494Z" fill="currentColor"/>
<path d="M25.2789 6.87108C25.3966 6.70742 25.6252 6.63485 25.8219 6.67871C26.1654 6.75529 26.2382 7.17117 26.064 7.47694C25.9975 7.59362 25.9328 7.70813 25.8731 7.81068L25.3255 8.71746C25.1142 9.06726 24.7307 9.23732 24.4341 8.95623C24.2498 8.78155 24.2578 8.50892 24.3922 8.29344C24.6721 7.84454 24.9955 7.26528 25.2789 6.87108Z" fill="currentColor"/>
<path d="M11.7288 6.56853C11.8092 6.56746 12.2408 6.62602 12.3581 6.63778C12.7866 6.68045 13.216 6.71135 13.6461 6.7305C13.6333 6.74634 13.6206 6.76233 13.6082 6.77846C13.1755 7.34275 13.2897 8.0276 13.3731 8.68374C13.2512 8.6765 13.1588 8.65958 13.0396 8.63913C12.3951 8.52851 11.8503 8.43065 11.2514 8.32549C10.695 8.22777 11.0722 7.45821 11.2273 7.1542C11.3474 6.9189 11.5255 6.73623 11.7288 6.56853Z" fill="currentColor"/>
<path d="M14.2531 6.64681C14.3128 6.61578 14.3858 6.60074 14.4519 6.61319C14.556 6.63278 14.6471 6.73268 14.6042 6.82948C14.5476 6.95717 14.3507 7.051 14.2922 7.16625C14.1344 7.49097 14.1407 7.88848 14.2081 8.23433C14.2275 8.33361 14.2784 8.43017 14.33 8.52346C14.5232 8.87285 14.036 9.0973 13.913 8.71746C13.7178 8.11479 13.5846 6.99419 14.2531 6.64681Z" fill="currentColor"/>
<path d="M21.9448 6.72613C22.1079 6.71412 22.2621 6.72914 22.3647 6.87565C22.4031 6.92935 22.417 6.99675 22.403 7.06129C22.3768 7.18312 22.2966 7.23754 22.1996 7.30145C22.1599 7.30786 22.1197 7.31107 22.0795 7.31092C21.7409 7.31087 21.6369 6.97134 21.9448 6.72613Z" fill="currentColor"/>
<path d="M13.5503 9.27553C13.7551 9.63927 14.0559 10.0123 14.3813 10.2773C15.3244 11.045 16.5775 11.2649 17.7594 11.1519C18.8565 11.047 20.0424 10.56 20.785 9.73126C21.0167 9.48857 21.1814 9.19608 21.3944 8.93818C22.0861 8.1004 22.6105 9.22873 23.0889 9.65729C23.7315 10.2328 24.3725 10.67 25.2456 10.7739C25.5663 10.8121 25.9364 10.7852 26.2569 10.7765C26.0756 11.8486 25.5816 12.5942 24.7785 13.3387C22.6658 15.2972 19.883 15.7769 17.0966 15.6751C14.0621 15.5642 10.2536 14.3967 8.15096 12.0856C8.55464 13.1321 8.85719 13.3087 9.65075 14.0349C9.61387 14.0302 9.57694 14.0261 9.53991 14.0229C7.75403 13.8654 5.4962 14.464 4.11367 15.6187C4.22432 15.5635 4.33619 15.5108 4.44922 15.4606C6.32951 14.6461 9.22423 14.4287 11.133 15.1804C9.93814 15.2225 8.53685 15.6508 7.65708 16.4899C7.18663 16.9332 6.85084 17.6664 7.09513 18.3138C7.66 19.8106 9.60002 19.9689 10.9339 19.9809C10.7158 19.9176 10.5016 19.8576 10.2788 19.7842C9.32954 19.4715 7.93311 18.6276 8.17623 17.4363C8.29606 16.8492 8.8343 16.4684 9.32074 16.1766C11.4346 14.9634 15.3209 15.8353 17.265 17.108C18.3822 17.8394 19.7201 18.9283 20.0776 20.2643C20.1299 20.4597 20.143 20.8361 19.8186 20.8221C19.5207 20.7665 19.1749 20.5651 18.8772 20.452C18.4294 20.2818 17.9688 20.1477 17.4996 20.0511C15.3042 19.5789 13.3711 19.761 11.167 19.9832C12.5307 21.0606 14.5415 21.4137 16.2505 21.3123C16.4625 21.3012 16.6742 21.2828 16.8849 21.2571C17.0713 21.2334 17.517 21.1549 17.6773 21.1752C17.6405 21.4158 17.433 21.7046 17.2468 21.8563C14.0666 24.4473 9.03524 24.5296 5.38788 22.9581C2.12447 21.552 -0.205718 18.6044 1.43048 14.9776C0.66088 15.7742 0.411052 16.3338 0.0982451 17.3814C0.0616043 17.179 0.0135437 16.9643 0.00431059 16.7593C-0.10498 14.3343 1.88101 12.1445 4.01925 11.2663C4.46992 11.0812 4.91423 10.9578 5.37418 10.8413C4.72198 10.7986 3.71115 10.8548 3.09939 11.0527C3.22991 10.9569 3.36229 10.8638 3.49646 10.7732C4.89129 9.83627 6.30478 9.55466 7.94773 9.87306C8.06004 9.32617 8.10722 9.11857 8.36847 8.6193C8.69655 8.6106 9.02479 8.62954 9.34969 8.67592L13.5503 9.27553Z" fill="currentColor"/>
<path d="M27.178 14.8979C29.454 14.7282 31.0612 16.6606 30.8743 18.8316C30.7868 19.8484 30.5597 20.4661 29.8608 21.2015C29.9339 20.7084 29.9038 19.8778 29.8277 19.3929C29.4843 20.4228 28.8664 21.1956 27.9773 21.8221C26.1969 23.0766 24.0993 23.3204 22.0043 22.9654C21.5217 22.8489 21.0197 22.7024 20.5839 22.4781C20.3822 22.3742 20.0655 22.2041 20.1316 21.9575C20.1443 21.91 20.2155 21.8416 20.2614 21.8283C21.5939 21.4414 23.0355 21.1171 24.1547 20.2528C24.8159 19.7426 25.2407 18.9945 25.8768 18.4627C26.2004 18.1922 26.6092 18.0005 26.9919 17.827C26.3568 17.923 25.9917 18.0194 25.5329 18.4739C25.7161 17.1621 25.0654 16.547 23.767 16.9084C24.5094 15.745 25.821 15.0255 27.178 14.8979Z" fill="currentColor"/>
<path d="M6.82139 0.00409614C8.08443 -0.0547041 8.95438 0.524065 9.58068 1.60152C10.0168 2.42108 10.2209 2.99572 10.9732 3.6068C11.888 4.34987 13.0119 4.42067 14.1391 4.25642C14.4006 4.21827 14.8186 4.02316 15.0946 3.93637C15.7414 3.73183 16.407 3.59227 17.0816 3.51962C19.9376 3.18757 22.7015 3.67104 24.9911 5.47961C24.6201 5.4662 23.9937 5.51353 23.6475 5.65193C23.1209 5.86249 22.9214 5.89763 22.3512 5.92839C21.7424 5.97946 21.0716 5.92917 20.4792 5.76807C20.0817 5.66 19.6626 5.48724 19.2524 5.41017C17.8582 5.14829 16.2766 5.23309 14.9654 5.79237C14.552 5.96872 14.251 6.16733 13.8869 6.40856C13.1984 6.33654 12.0422 6.33809 11.4172 6.20732C11.8411 5.90404 12.2037 5.6495 12.613 5.32289C10.997 5.47883 9.39543 4.62215 8.80437 3.08187C8.53666 2.38429 8.49074 1.83978 7.96586 1.25027C7.33796 0.545107 6.38841 0.25441 5.47462 0.193326C5.93016 0.115573 6.36032 0.0355858 6.82139 0.00409614Z" fill="currentColor"/>
<path fill-rule="evenodd" clip-rule="evenodd" d="M17.6503 5.71383C18.2625 5.63345 19.4715 5.77596 20.0454 5.96762C20.2983 6.05213 20.709 6.22991 20.9705 6.33721C21.1567 6.26782 21.3009 6.21704 21.4786 6.3272C21.552 6.50049 21.2963 6.53611 21.1728 6.57017C21.297 6.97905 21.3677 7.34269 21.2766 7.76721C21.0084 9.01698 20.0773 9.90585 18.9167 10.3463C17.2323 10.9475 15.0616 10.2398 14.9596 8.19043C14.8629 6.24718 15.9015 5.83614 17.6503 5.71383ZM20.6737 6.85316C20.1664 6.12526 18.4867 6.04773 17.7042 6.12684C16.2629 6.22539 15.236 6.5627 15.4006 8.24818C15.5443 9.7211 17.1553 10.2974 18.4354 9.9959C19.3834 9.72766 20.0516 9.19346 20.5456 8.34077C20.7725 7.94914 20.9418 7.23788 20.6737 6.85316Z" fill="currentColor"/>
<path d="M3.95534 1.12174C4.15161 1.10789 4.20789 1.11406 4.32715 1.10789C5.86596 1.04593 7.1013 1.78764 7.37445 3.35848C7.6808 5.1203 9.3342 6.07937 10.8914 6.50429C10.5251 6.84285 10.1525 7.18992 10.0437 7.69361C9.44223 7.60016 9.0367 7.45914 8.49807 7.17962C7.37387 6.61703 6.62939 5.72142 6.35779 4.48574C6.26887 4.08114 6.25181 3.61603 6.10248 3.22965C5.45344 1.5504 3.355 1.89902 1.92168 1.8825C1.3883 1.88896 1.36658 1.94363 1.12837 1.84586C0.90367 1.75365 1.11442 1.43683 1.34929 1.37498C1.6269 1.30187 1.97888 1.29191 2.19513 1.27136C2.96765 1.20863 3.36793 1.16319 3.95534 1.12174Z" fill="currentColor"/>
<path d="M27.4779 14.4759C25.4949 14.2717 23.2201 15.5868 22.4231 17.4145C22.3678 17.5413 22.3201 17.6767 22.2742 17.8075C22.2742 17.8075 21.2672 17.7278 20.7049 17.4637C20.1426 17.1996 19.3946 16.4548 19.3946 16.4548C21.3719 16.1263 23.7229 15.2299 25.155 13.786L27.4779 14.4759Z" fill="currentColor"/>
<path d="M24.3695 17.1912C24.5424 17.1406 24.7362 17.1195 24.8937 17.2068C25.3067 17.4357 25.1726 18.1493 25.1419 18.576C24.1836 18.7658 23.4258 19.3549 22.8787 20.1493L22.6927 20.4143C22.5534 20.2814 22.4238 20.1231 22.4145 19.9214C22.3663 18.866 23.2982 17.5048 24.3695 17.1912Z" fill="currentColor"/>
<path d="M43.64 17.984C41.6933 17.984 40.0987 17.4267 38.856 16.312C37.6187 15.192 37 13.7573 37 12.008C37 10.2427 37.624 8.80267 38.872 7.688C40.1253 6.57333 41.7173 6.016 43.648 6.016C44.256 6.016 44.8293 6.07733 45.368 6.2C45.912 6.32267 46.4187 6.49867 46.888 6.728C47.3627 6.952 47.7573 7.18933 48.072 7.44C48.392 7.69067 48.552 7.816 48.552 7.816L46.672 10.136C46.672 10.136 46.568 10.0533 46.36 9.888C46.1573 9.72267 45.9173 9.576 45.64 9.448C45.368 9.31467 45.0667 9.21067 44.736 9.136C44.4053 9.06133 44.064 9.024 43.712 9.024C42.7413 9.024 41.9413 9.296 41.312 9.84C40.688 10.384 40.376 11.1013 40.376 11.992C40.376 12.8773 40.688 13.5947 41.312 14.144C41.936 14.6933 42.7333 14.968 43.704 14.968C44.0827 14.968 44.4427 14.928 44.784 14.848C45.1307 14.7627 45.448 14.6453 45.736 14.496C46.0293 14.3467 46.2773 14.184 46.48 14.008C46.688 13.832 46.792 13.744 46.792 13.744L48.768 15.944C48.768 15.944 48.6133 16.0907 48.304 16.384C47.9947 16.672 47.592 16.9413 47.096 17.192C46.6053 17.4427 46.0693 17.6373 45.488 17.776C44.912 17.9147 44.296 17.984 43.64 17.984Z" fill="currentColor"/>
<path d="M50.0626 17.728V6.272H53.3586V14.808H58.9826V17.728H50.0626Z" fill="currentColor"/>
<path d="M59.3881 17.728L64.4681 6.272H67.3561L72.4281 17.728H68.8761L66.2121 11.216L65.8681 10.256H65.8361L65.5001 11.208L62.8201 17.728H59.3881ZM61.9961 15.816L62.8201 13.736H68.8441L69.7081 15.816H61.9961Z" fill="currentColor"/>
<path d="M74.8044 17.728L71.1324 6.272H74.5404L76.4524 12.552L76.6364 13.24H76.6684L76.8844 12.552L79.0844 6.272H81.7164L83.8124 12.544L84.0284 13.224H84.0604L84.2604 12.544L86.1564 6.272H89.3804L85.7084 17.728H82.7404L80.4924 11.184L80.2684 10.48H80.2364L80.0124 11.184L77.7404 17.728H74.8044Z" fill="currentColor"/>
<path d="M90.5939 17.728V6.272H96.2499C97.6899 6.272 98.8205 6.64267 99.6419 7.384C100.469 8.12533 100.882 9.14933 100.882 10.456C100.882 11.7413 100.461 12.7493 99.6179 13.48C98.7752 14.2053 97.6552 14.568 96.2579 14.568H92.3939V11.968H95.9459C96.4845 11.968 96.9005 11.84 97.1939 11.584C97.4872 11.328 97.6339 10.9707 97.6339 10.512C97.6339 10.048 97.4819 9.69067 97.1779 9.44C96.8739 9.184 96.4579 9.056 95.9299 9.056H93.9059V17.728H90.5939Z" fill="currentColor"/>
<path d="M102.359 17.728V6.272H105.679V17.728H102.359Z" fill="currentColor"/>
<path d="M107.906 17.728V6.272H111.202V14.808H116.826V17.728H107.906Z" fill="currentColor"/>
<path d="M123.985 17.984C122.076 17.984 120.481 17.4267 119.201 16.312C117.921 15.1973 117.281 13.7573 117.281 11.992C117.281 10.232 117.921 8.79733 119.201 7.688C120.487 6.57333 122.081 6.016 123.985 6.016C125.884 6.016 127.473 6.57867 128.753 7.704C130.039 8.824 130.681 10.2533 130.681 11.992C130.681 13.7307 130.039 15.1653 128.753 16.296C127.473 17.4213 125.884 17.984 123.985 17.984ZM123.985 14.984C124.956 14.984 125.761 14.704 126.401 14.144C127.047 13.584 127.369 12.8667 127.369 11.992C127.369 11.1173 127.047 10.4027 126.401 9.848C125.761 9.29333 124.956 9.016 123.985 9.016C123.015 9.016 122.207 9.29333 121.561 9.848C120.916 10.4027 120.593 11.1173 120.593 11.992C120.593 12.872 120.913 13.592 121.553 14.152C122.199 14.7067 123.009 14.984 123.985 14.984Z" fill="currentColor"/>
<path d="M134.682 17.728V7.752H137.978V17.728H134.682ZM131.058 9.184V6.272H141.554V9.184H131.058Z" fill="currentColor"/>
</svg>
