<svg  viewBox="0 0 20 20" fill="none" xmlns="http://www.w3.org/2000/svg">
<g clip-path="url(#clip0_141_1485)">
<path d="M17.1799 9.02917C15.7955 8.43983 14.5367 7.59094 13.4715 6.52833C11.9881 5.04194 10.9298 3.18542 10.4065 1.15167C10.3836 1.06134 10.3312 0.981239 10.2576 0.924027C10.184 0.866815 10.0935 0.835754 10.0003 0.835754C9.90707 0.835754 9.81653 0.866815 9.74296 0.924027C9.66939 0.981239 9.61698 1.06134 9.59402 1.15167C9.06966 3.18515 8.01117 5.04147 6.52819 6.52833C5.46288 7.59082 4.20415 8.43969 2.81986 9.02917C2.27819 9.2625 1.72152 9.45 1.15152 9.59417C1.06064 9.6165 0.979872 9.66866 0.92213 9.7423C0.864388 9.81595 0.833008 9.90683 0.833008 10.0004C0.833008 10.094 0.864388 10.1849 0.92213 10.2585C0.979872 10.3322 1.06064 10.3843 1.15152 10.4067C1.72152 10.55 2.27652 10.7375 2.81986 10.9708C4.20423 11.5602 5.46299 12.4091 6.52819 13.4717C8.01202 14.9582 9.07063 16.815 9.59402 18.8492C9.61635 18.94 9.66851 19.0208 9.74216 19.0786C9.81581 19.1363 9.90669 19.1677 10.0003 19.1677C10.0939 19.1677 10.1847 19.1363 10.2584 19.0786C10.332 19.0208 10.3842 18.94 10.4065 18.8492C10.5499 18.2783 10.7374 17.7233 10.9707 17.18C11.56 15.7956 12.4089 14.5368 13.4715 13.4717C14.9582 11.9882 16.815 10.9299 18.849 10.4067C18.9393 10.3837 19.0194 10.3313 19.0767 10.2577C19.1339 10.1842 19.1649 10.0936 19.1649 10.0004C19.1649 9.90722 19.1339 9.81668 19.0767 9.7431C19.0194 9.66953 18.9393 9.61712 18.849 9.59417C18.2785 9.45062 17.7203 9.26168 17.1799 9.02917Z" fill="#3186FF"/>
<path d="M17.1799 9.02917C15.7955 8.43983 14.5367 7.59094 13.4715 6.52833C11.9881 5.04194 10.9298 3.18542 10.4065 1.15167C10.3836 1.06134 10.3312 0.981239 10.2576 0.924027C10.184 0.866815 10.0935 0.835754 10.0003 0.835754C9.90707 0.835754 9.81653 0.866815 9.74296 0.924027C9.66939 0.981239 9.61698 1.06134 9.59402 1.15167C9.06966 3.18515 8.01117 5.04147 6.52819 6.52833C5.46288 7.59082 4.20415 8.43969 2.81986 9.02917C2.27819 9.2625 1.72152 9.45 1.15152 9.59417C1.06064 9.6165 0.979872 9.66866 0.92213 9.7423C0.864388 9.81595 0.833008 9.90683 0.833008 10.0004C0.833008 10.094 0.864388 10.1849 0.92213 10.2585C0.979872 10.3322 1.06064 10.3843 1.15152 10.4067C1.72152 10.55 2.27652 10.7375 2.81986 10.9708C4.20423 11.5602 5.46299 12.4091 6.52819 13.4717C8.01202 14.9582 9.07063 16.815 9.59402 18.8492C9.61635 18.94 9.66851 19.0208 9.74216 19.0786C9.81581 19.1363 9.90669 19.1677 10.0003 19.1677C10.0939 19.1677 10.1847 19.1363 10.2584 19.0786C10.332 19.0208 10.3842 18.94 10.4065 18.8492C10.5499 18.2783 10.7374 17.7233 10.9707 17.18C11.56 15.7956 12.4089 14.5368 13.4715 13.4717C14.9582 11.9882 16.815 10.9299 18.849 10.4067C18.9393 10.3837 19.0194 10.3313 19.0767 10.2577C19.1339 10.1842 19.1649 10.0936 19.1649 10.0004C19.1649 9.90722 19.1339 9.81668 19.0767 9.7431C19.0194 9.66953 18.9393 9.61712 18.849 9.59417C18.2785 9.45062 17.7203 9.26168 17.1799 9.02917Z" fill="url(#paint0_linear_141_1485)"/>
<path d="M17.1799 9.02917C15.7955 8.43983 14.5367 7.59094 13.4715 6.52833C11.9881 5.04194 10.9298 3.18542 10.4065 1.15167C10.3836 1.06134 10.3312 0.981239 10.2576 0.924027C10.184 0.866815 10.0935 0.835754 10.0003 0.835754C9.90707 0.835754 9.81653 0.866815 9.74296 0.924027C9.66939 0.981239 9.61698 1.06134 9.59402 1.15167C9.06966 3.18515 8.01117 5.04147 6.52819 6.52833C5.46288 7.59082 4.20415 8.43969 2.81986 9.02917C2.27819 9.2625 1.72152 9.45 1.15152 9.59417C1.06064 9.6165 0.979872 9.66866 0.92213 9.7423C0.864388 9.81595 0.833008 9.90683 0.833008 10.0004C0.833008 10.094 0.864388 10.1849 0.92213 10.2585C0.979872 10.3322 1.06064 10.3843 1.15152 10.4067C1.72152 10.55 2.27652 10.7375 2.81986 10.9708C4.20423 11.5602 5.46299 12.4091 6.52819 13.4717C8.01202 14.9582 9.07063 16.815 9.59402 18.8492C9.61635 18.94 9.66851 19.0208 9.74216 19.0786C9.81581 19.1363 9.90669 19.1677 10.0003 19.1677C10.0939 19.1677 10.1847 19.1363 10.2584 19.0786C10.332 19.0208 10.3842 18.94 10.4065 18.8492C10.5499 18.2783 10.7374 17.7233 10.9707 17.18C11.56 15.7956 12.4089 14.5368 13.4715 13.4717C14.9582 11.9882 16.815 10.9299 18.849 10.4067C18.9393 10.3837 19.0194 10.3313 19.0767 10.2577C19.1339 10.1842 19.1649 10.0936 19.1649 10.0004C19.1649 9.90722 19.1339 9.81668 19.0767 9.7431C19.0194 9.66953 18.9393 9.61712 18.849 9.59417C18.2785 9.45062 17.7203 9.26168 17.1799 9.02917Z" fill="url(#paint1_linear_141_1485)"/>
<path d="M17.1799 9.02917C15.7955 8.43983 14.5367 7.59094 13.4715 6.52833C11.9881 5.04194 10.9298 3.18542 10.4065 1.15167C10.3836 1.06134 10.3312 0.981239 10.2576 0.924027C10.184 0.866815 10.0935 0.835754 10.0003 0.835754C9.90707 0.835754 9.81653 0.866815 9.74296 0.924027C9.66939 0.981239 9.61698 1.06134 9.59402 1.15167C9.06966 3.18515 8.01117 5.04147 6.52819 6.52833C5.46288 7.59082 4.20415 8.43969 2.81986 9.02917C2.27819 9.2625 1.72152 9.45 1.15152 9.59417C1.06064 9.6165 0.979872 9.66866 0.92213 9.7423C0.864388 9.81595 0.833008 9.90683 0.833008 10.0004C0.833008 10.094 0.864388 10.1849 0.92213 10.2585C0.979872 10.3322 1.06064 10.3843 1.15152 10.4067C1.72152 10.55 2.27652 10.7375 2.81986 10.9708C4.20423 11.5602 5.46299 12.4091 6.52819 13.4717C8.01202 14.9582 9.07063 16.815 9.59402 18.8492C9.61635 18.94 9.66851 19.0208 9.74216 19.0786C9.81581 19.1363 9.90669 19.1677 10.0003 19.1677C10.0939 19.1677 10.1847 19.1363 10.2584 19.0786C10.332 19.0208 10.3842 18.94 10.4065 18.8492C10.5499 18.2783 10.7374 17.7233 10.9707 17.18C11.56 15.7956 12.4089 14.5368 13.4715 13.4717C14.9582 11.9882 16.815 10.9299 18.849 10.4067C18.9393 10.3837 19.0194 10.3313 19.0767 10.2577C19.1339 10.1842 19.1649 10.0936 19.1649 10.0004C19.1649 9.90722 19.1339 9.81668 19.0767 9.7431C19.0194 9.66953 18.9393 9.61712 18.849 9.59417C18.2785 9.45062 17.7203 9.26168 17.1799 9.02917Z" fill="url(#paint2_linear_141_1485)"/>
</g>
<defs>
<linearGradient id="paint0_linear_141_1485" x1="5.83319" y1="12.9167" x2="9.16652" y2="10" gradientUnits="userSpaceOnUse">
<stop stop-color="#08B962"/>
<stop offset="1" stop-color="#08B962" stop-opacity="0"/>
</linearGradient>
<linearGradient id="paint1_linear_141_1485" x1="6.66652" y1="4.58333" x2="9.58319" y2="9.16667" gradientUnits="userSpaceOnUse">
<stop stop-color="#F94543"/>
<stop offset="1" stop-color="#F94543" stop-opacity="0"/>
</linearGradient>
<linearGradient id="paint2_linear_141_1485" x1="2.91652" y1="11.25" x2="14.5832" y2="10" gradientUnits="userSpaceOnUse">
<stop stop-color="#FABC12"/>
<stop offset="0.46" stop-color="#FABC12" stop-opacity="0"/>
</linearGradient>
<clipPath id="clip0_141_1485">
<rect width="20" height="20" fill="white"/>
</clipPath>
</defs>
</svg>
