<svg width="64" height="64" viewBox="0 0 64 64" fill="none" xmlns="http://www.w3.org/2000/svg">
<path d="M58.2503 16.2031C58.4356 16.8435 58.5327 17.4931 58.586 18.1458C58.6676 19.1445 58.6668 20.3577 58.6668 21.763V40.1901L58.5263 40.1381L57.094 36.4141L56.8855 35.9272C55.7516 33.5424 53.3386 32 50.6668 32C47.9951 32 45.582 33.5424 44.4482 35.9272L44.2396 36.4141L42.805 40.1381L39.081 41.5728C36.4215 42.596 34.6668 45.1507 34.6668 48C34.6668 50.1051 35.6252 52.0488 37.198 53.3333H16.4298C15.0245 53.3333 13.8113 53.3341 12.8127 53.2525C11.7586 53.1664 10.7095 52.9749 9.7007 52.4611C8.19609 51.6941 6.97275 50.4707 6.2059 48.9661C5.6919 47.9573 5.50041 46.9083 5.41422 45.8541C5.33265 44.8555 5.33345 43.6424 5.3335 42.2371V21.763C5.33345 20.3577 5.33265 19.1445 5.41422 18.1458C5.46758 17.4933 5.56233 16.8433 5.74755 16.2031L27.2946 31.8749C30.0996 33.9152 33.9007 33.9152 36.706 31.8749L58.2503 16.2031Z" fill="#CBCFD7"/>
<path d="M40.9948 46.5496C40.9201 46.5784 40.8495 46.6147 40.7815 46.6536L40.7788 46.6509C40.8471 46.6117 40.9199 46.5784 40.9948 46.5496L42.3023 46.0443L45.8281 44.6928L40.9948 46.5496Z" fill="#CBCFD7"/>
<path d="M47.5702 10.6667C48.9756 10.6666 50.1886 10.6658 51.1873 10.7474C52.2414 10.8336 53.2905 11.0251 54.2993 11.5391C54.5478 11.6658 54.7857 11.8101 55.018 11.9609L33.5676 27.5624C32.6329 28.2419 31.3668 28.2419 30.4321 27.5624L8.979 11.9609C9.21204 11.8096 9.45108 11.6661 9.70036 11.5391C10.7091 11.0251 11.7583 10.8336 12.8123 10.7474C13.811 10.6658 15.0242 10.6666 16.4295 10.6667H47.5702Z" fill="#CBCFD7"/>
<path d="M53.9747 43.1605L52.1163 38.3288C51.8856 37.7291 51.3093 37.3333 50.6667 37.3333C50.024 37.3333 49.4477 37.7291 49.2171 38.3288L47.3587 43.1605C47.088 43.8648 46.5323 44.4219 45.828 44.6928L40.9947 46.5496C40.3949 46.7803 40 47.3573 40 48C40 48.6427 40.3957 49.2189 40.9955 49.4496L45.8272 51.308C46.5315 51.5787 47.088 52.1352 47.3587 52.8395L49.2171 57.6712C49.4477 58.2709 50.024 58.6667 50.6667 58.6667C51.3093 58.6667 51.8856 58.2709 52.1163 57.6712L53.9747 52.8395C54.2453 52.1352 54.8019 51.5787 55.5061 51.308L60.3379 49.4496C60.9376 49.2189 61.3333 48.6427 61.3333 48C61.3333 47.3573 60.9376 46.7811 60.3379 46.5504L55.5061 44.692C54.8019 44.4213 54.2453 43.8648 53.9747 43.1605Z" fill="#006BFF"/>
</svg>
