<svg viewBox="0 0 16 16" fill="none" xmlns="http://www.w3.org/2000/svg">
<path d="M13.4998 8C13.4998 4.96244 11.0374 2.5 7.99984 2.5C4.96227 2.5 2.49984 4.96243 2.49984 8C2.49984 8.8312 2.68407 9.61749 3.01286 10.3223C3.13872 10.592 3.18414 10.9106 3.10726 11.2272L2.56755 13.4473H2.5682L4.882 12.9271C5.18487 12.859 5.48776 12.9025 5.74658 13.0189C6.43339 13.3278 7.19562 13.5 7.99984 13.5C11.0374 13.5 13.4998 11.0375 13.4998 8ZM14.8332 8C14.8332 11.7739 11.7738 14.8333 7.99984 14.8333C7.00348 14.8333 6.05511 14.6198 5.19971 14.235C5.17942 14.2259 5.1704 14.2287 5.17432 14.2279L2.86051 14.748C1.89586 14.965 1.03879 14.0935 1.27197 13.1328L1.81169 10.9128C1.81073 10.9168 1.81438 10.9072 1.80452 10.8861C1.39509 10.0084 1.1665 9.02999 1.1665 8C1.1665 4.22605 4.22589 1.16666 7.99984 1.16666C11.7738 1.16666 14.8332 4.22605 14.8332 8Z" fill="currentColor"/>
</svg>
