<svg width="24" height="24" viewBox="0 0 24 24" fill="none" xmlns="http://www.w3.org/2000/svg">
<path d="M14 11H10M14 11C14.5523 11 15 11.4477 15 12V14C15 14.5523 14.5523 15 14 15H10C9.44772 15 9 14.5523 9 14V12C9 11.4477 9.44772 11 10 11M14 11V10C14 8.89543 13.1046 8 12 8C10.8954 8 10 8.89543 10 10V11M4 8V6C4 4.89543 4.89543 4 6 4H8M4 16V18C4 19.1046 4.89543 20 6 20H8M16 4H18C19.1046 4 20 4.89543 20 6V8M20 16V18C20 19.1046 19.1046 20 18 20H16" stroke="#1D1F25" stroke-width="1.5" stroke-linecap="round" stroke-linejoin="round"/>
</svg>
