<svg viewBox="0 0 16 16" fill="none" xmlns="http://www.w3.org/2000/svg">
<path d="M13.1066 5.89853C13.1066 5.40503 13.0989 5.30712 13.074 5.23056C13.0524 5.16407 13.0205 5.10139 12.9796 5.04501L12.9354 4.99032C12.8815 4.93054 12.8009 4.87514 12.3735 4.62834L8.73354 2.52678C8.71036 2.5134 8.68772 2.50058 8.66648 2.48837V7.61467L13.1059 10.1778C13.106 10.1535 13.1066 10.1282 13.1066 10.1017V5.89853ZM3.55971 11.3328C3.58095 11.3451 3.60288 11.3584 3.62611 11.3718L7.26674 13.4734C7.69383 13.72 7.78235 13.7626 7.86114 13.7794C7.95243 13.7988 8.04719 13.7988 8.13849 13.7794C8.2173 13.7626 8.30565 13.7201 8.73289 13.4734H8.73354L12.3735 11.3718L12.4393 11.3328L7.99981 8.76962L3.55971 11.3328ZM2.89304 10.1778L7.33315 7.61467V2.48837C7.31195 2.50055 7.28987 2.51342 7.26674 2.52678L3.62611 4.62834C3.19885 4.87503 3.11814 4.9305 3.06427 4.99032C3.00175 5.05976 2.95446 5.14171 2.92559 5.23056C2.90075 5.30712 2.89304 5.40517 2.89304 5.89853V10.1778ZM14.4399 10.3946C14.4372 10.6791 14.4215 10.9378 14.3423 11.1817C14.2665 11.4148 14.1484 11.6317 13.9946 11.8217L13.9262 11.9018C13.6976 12.1558 13.3895 12.3244 13.0402 12.5261V12.5268L9.39955 14.6277C9.04985 14.8296 8.75014 15.0123 8.41583 15.0834C8.14166 15.1417 7.85797 15.1417 7.5838 15.0834C7.2496 15.0123 6.94965 14.8302 6.60007 14.6283L2.95945 12.5268C2.60994 12.3249 2.30211 12.1558 2.07338 11.9018C1.88588 11.6935 1.74398 11.4483 1.65736 11.1817C1.55171 10.8566 1.55971 10.5053 1.55971 10.1017V5.89853C1.55971 5.49484 1.55177 5.14352 1.65736 4.81845C1.74396 4.55195 1.88591 4.30665 2.07338 4.09839C2.30207 3.84441 2.60988 3.67522 2.95945 3.47339L6.60007 1.37183C6.94955 1.17007 7.24954 0.987865 7.5838 0.916754C7.85793 0.858478 8.1417 0.858478 8.41583 0.916754C8.7501 0.987838 9.05008 1.17006 9.39955 1.37183H9.4002L13.0402 3.47339C13.3897 3.6752 13.6975 3.84432 13.9262 4.09839C14.1138 4.30665 14.2557 4.5519 14.3423 4.81845C14.4215 5.06224 14.4371 5.32066 14.4399 5.60491V10.3946Z" fill="currentColor"/>
</svg>
