<svg width="20" height="20" viewBox="0 0 20 20" fill="none" xmlns="http://www.w3.org/2000/svg">
<path fill-rule="evenodd" clip-rule="evenodd" d="M13.7859 2.95241C14.6867 2.05167 16.147 2.05167 17.0478 2.95241C17.9485 3.85314 17.9485 5.31352 17.0478 6.21426L6.21444 17.0476C5.31371 17.9483 3.85332 17.9483 2.95259 17.0476C2.05186 16.1468 2.05186 14.6865 2.95259 13.7857L13.7859 2.95241ZM15.8693 4.13092C15.6194 3.88106 15.2143 3.88106 14.9644 4.13092L13.4704 5.625L14.3752 6.52982L15.8693 5.03574C16.1191 4.78588 16.1191 4.38078 15.8693 4.13092Z" fill="#006BFF"/>
<path d="M8.20856 1.72876C8.28919 1.68845 8.35459 1.62306 8.39492 1.54243L8.79342 0.745342C8.947 0.438239 9.38525 0.438239 9.53884 0.745342L9.93734 1.54243C9.97767 1.62306 10.0431 1.68845 10.1237 1.72876L10.9208 2.1273C11.2278 2.28086 11.2278 2.71911 10.9208 2.87266L10.1237 3.2712C10.0431 3.31152 9.97767 3.37691 9.93734 3.45755L9.53884 4.25463C9.38525 4.56174 8.947 4.56174 8.79342 4.25463L8.39492 3.45755C8.35459 3.37691 8.28919 3.31152 8.20856 3.2712L7.41148 2.87266C7.10438 2.71911 7.10438 2.28086 7.41148 2.1273L8.20856 1.72876Z" fill="#006BFF"/>
<path d="M15.7086 10.8954C15.7892 10.8552 15.8546 10.7898 15.8949 10.7091L16.2934 9.91201C16.447 9.60493 16.8853 9.60493 17.0389 9.91201L17.4374 10.7091C17.4777 10.7898 17.5431 10.8552 17.6237 10.8954L18.4208 11.294C18.7279 11.4476 18.7279 11.8858 18.4208 12.0393L17.6237 12.4379C17.5431 12.4783 17.4777 12.5436 17.4374 12.6243L17.0389 13.4213C16.8853 13.7284 16.447 13.7284 16.2934 13.4213L15.8949 12.6243C15.8546 12.5436 15.7892 12.4783 15.7086 12.4379L14.9115 12.0393C14.6044 11.8858 14.6044 11.4476 14.9115 11.294L15.7086 10.8954Z" fill="#006BFF"/>
<path d="M4.04187 5.89545C4.12251 5.85513 4.1879 5.78975 4.22822 5.70912L4.62676 4.91203C4.78031 4.60493 5.21856 4.60493 5.37212 4.91203L5.77066 5.70912C5.81097 5.78975 5.87636 5.85513 5.95699 5.89545L6.75408 6.29399C7.06118 6.44755 7.06118 6.8858 6.75408 7.03935L5.95699 7.43789C5.87636 7.47821 5.81097 7.5436 5.77066 7.62423L5.37212 8.42133C5.21856 8.72842 4.78031 8.72842 4.62676 8.42133L4.22822 7.62423C4.1879 7.5436 4.12251 7.47821 4.04187 7.43789L3.24479 7.03935C2.93769 6.8858 2.93769 6.44755 3.24479 6.29399L4.04187 5.89545Z" fill="#006BFF"/>
</svg>
