<svg viewBox="0 0 16 16" fill="none" xmlns="http://www.w3.org/2000/svg">
<path d="M8.71422 2.96173C9.49524 2.18066 10.762 2.18066 11.543 2.96173L14.9909 6.409C15.7719 7.18998 15.7718 8.45675 14.9909 9.23777L11.543 12.6857C10.762 13.4666 9.4952 13.4667 8.71422 12.6857L8.12828 12.0998L7.54299 12.6857C6.76195 13.4666 5.49523 13.4667 4.71422 12.6857L1.26695 9.23777C0.485895 8.45676 0.485877 7.19002 1.26695 6.409L4.71422 2.96173C5.49526 2.1807 6.76194 2.18067 7.54299 2.96173L8.12828 3.54702L8.71422 2.96173ZM6.60028 3.90444C6.33998 3.64413 5.91794 3.64419 5.65758 3.90444L2.20966 7.35236C1.94941 7.61267 1.94935 8.03477 2.20966 8.29507L5.65758 11.7423C5.91793 12.0027 6.33995 12.0027 6.60028 11.7423L10.0475 8.29507C10.3079 8.03475 10.3079 7.61268 10.0475 7.35236L6.60028 3.90444ZM10.6003 3.90444C10.34 3.64414 9.9179 3.64419 9.65758 3.90444L9.07164 4.48973L10.9909 6.409C11.7719 7.18998 11.7718 8.45675 10.9909 9.23777L9.07164 11.1564L9.65758 11.7423C9.91789 12.0026 10.34 12.0026 10.6003 11.7423L14.0475 8.29507C14.3079 8.03475 14.3079 7.61268 14.0475 7.35236L10.6003 3.90444Z" fill="currentColor"/>
</svg>
