<svg xmlns="http://www.w3.org/2000/svg" viewBox="0 0 24 24" fill="none">
  <path d="M5.042 15.165a2.528 2.528 0 0 1-2.52 2.523A2.528 2.528 0 0 1 0 15.165a2.527 2.527 0 0 1 2.522-2.52h2.52v2.52zm1.268 0a2.527 2.527 0 0 1 2.521-2.52 2.527 2.527 0 0 1 2.521 2.52v6.313A2.528 2.528 0 0 1 8.831 24a2.528 2.528 0 0 1-2.52-2.522v-6.313z" fill="#E01E5A"/>
  <path d="M8.831 5.042a2.528 2.528 0 0 1-2.52-2.52A2.528 2.528 0 0 1 8.83 0a2.528 2.528 0 0 1 2.521 2.522v2.52H8.831zm0 1.268a2.528 2.528 0 0 1 2.521 2.521 2.528 2.528 0 0 1-2.52 2.521H2.521A2.528 2.528 0 0 1 0 8.831a2.528 2.528 0 0 1 2.522-2.52h6.309z" fill="#36C5F0"/>
  <path d="M18.958 8.831a2.528 2.528 0 0 1 2.52-2.52A2.528 2.528 0 0 1 24 8.831a2.528 2.528 0 0 1-2.522 2.521h-2.52V8.831zm-1.268 0a2.528 2.528 0 0 1-2.52 2.521 2.527 2.527 0 0 1-2.521-2.52V2.521A2.527 2.527 0 0 1 15.17 0a2.528 2.528 0 0 1 2.52 2.522v6.309z" fill="#2EB67D"/>
  <path d="M15.17 18.958a2.528 2.528 0 0 1 2.52 2.52A2.528 2.528 0 0 1 15.17 24a2.527 2.527 0 0 1-2.521-2.522v-2.52h2.52zm0-1.268a2.527 2.527 0 0 1-2.521-2.52 2.527 2.527 0 0 1 2.52-2.521h6.313A2.528 2.528 0 0 1 24 15.17a2.528 2.528 0 0 1-2.522 2.52H15.17z" fill="#ECB22E"/>
</svg>
