<svg viewBox="0 0 16 16" fill="none" xmlns="http://www.w3.org/2000/svg">
<path d="M8.00043 7.99992C10.5549 7.99992 12.5099 9.53062 13.3038 11.677C13.5308 12.2906 13.3755 12.8955 13.0147 13.3254C12.6632 13.7444 12.1208 13.9998 11.5362 13.9999H4.46527C3.8806 13.9999 3.33768 13.7444 2.9861 13.3254C2.62544 12.8955 2.47011 12.2906 2.69704 11.677C3.49097 9.53061 5.44599 7.99995 8.00043 7.99992ZM8.00043 9.33325C6.03354 9.33328 4.55849 10.4883 3.94769 12.1399C3.90213 12.2631 3.92519 12.3705 4.00759 12.4687C4.09918 12.5778 4.26428 12.6666 4.46527 12.6666H11.5362C11.737 12.6665 11.9017 12.5777 11.9933 12.4687C12.0756 12.3705 12.0993 12.263 12.0538 12.1399C11.443 10.4883 9.96739 9.33325 8.00043 9.33325ZM9.66644 4.33325C9.66644 3.41278 8.92025 2.66659 7.99978 2.66659C7.0793 2.66659 6.33311 3.41278 6.33311 4.33325C6.33311 5.25373 7.0793 5.99992 7.99978 5.99992C8.92025 5.99992 9.66644 5.25373 9.66644 4.33325ZM10.9998 4.33325C10.9998 5.99011 9.65663 7.33325 7.99978 7.33325C6.34292 7.33325 4.99978 5.99011 4.99978 4.33325C4.99978 2.6764 6.34292 1.33325 7.99978 1.33325C9.65663 1.33325 10.9998 2.6764 10.9998 4.33325Z" fill="currentColor"/>
</svg>
