<svg xmlns="http://www.w3.org/2000/svg" viewBox="0 0 24 24" fill="none">
  <path d="M12.04 2C6.58 2 2.13 6.45 2.13 11.91c0 1.75.46 3.45 1.32 4.95L2.05 22l5.25-1.38c1.45.79 3.08 1.21 4.74 1.21 5.46 0 9.91-4.45 9.91-9.91C21.95 6.45 17.5 2 12.04 2z" fill="#25D366"/>
  <path d="M17.6 14.82c-.3-.15-1.77-.87-2.04-.97-.27-.1-.47-.15-.67.15s-.77.97-.94 1.17c-.17.2-.35.22-.65.07-.3-.15-1.26-.46-2.4-1.48-.89-.79-1.49-1.77-1.66-2.07-.17-.3-.02-.46.13-.61.14-.13.3-.35.45-.52.15-.17.2-.3.3-.5.1-.2.05-.37-.02-.52-.08-.15-.67-1.62-.92-2.22-.24-.58-.49-.5-.67-.51-.17-.01-.37-.01-.57-.01s-.52.07-.8.37c-.27.3-1.04 1.02-1.04 2.49s1.07 2.89 1.22 3.09c.15.2 2.1 3.21 5.1 4.5.71.31 1.27.49 1.7.63.72.23 1.37.2 1.88.12.58-.09 1.77-.72 2.02-1.42.25-.7.25-1.3.17-1.42-.07-.13-.27-.2-.57-.35z" fill="#fff"/>
</svg>
