<svg viewBox="0 0 16 16" fill="none" xmlns="http://www.w3.org/2000/svg">
<path d="M2.6665 12.6666V3.33325C2.6665 2.22868 3.56193 1.33325 4.6665 1.33325H8.11442C8.64478 1.3333 9.15345 1.54417 9.52848 1.91919L12.7472 5.13794C13.1223 5.51298 13.3331 6.02164 13.3332 6.552V12.6666C13.3332 13.7712 12.4378 14.6666 11.3332 14.6666H4.6665C3.56194 14.6666 2.6665 13.7712 2.6665 12.6666ZM9.33317 4.66658C9.33317 5.03478 9.63163 5.33325 9.99984 5.33325H11.0571L9.33317 3.60929V4.66658ZM3.99984 12.6666C3.99984 13.0348 4.29831 13.3333 4.6665 13.3333H11.3332C11.7014 13.3333 11.9998 13.0348 11.9998 12.6666V6.66658H9.99984C8.89524 6.66658 7.99984 5.77115 7.99984 4.66658V2.66659H4.6665C4.29831 2.66659 3.99984 2.96506 3.99984 3.33325V12.6666Z" fill="currentColor"/>
</svg>
