<svg viewBox="0 0 16 16" fill="none" xmlns="http://www.w3.org/2000/svg">
<path d="M14.2952 11.1568C14.2952 9.59203 13.0267 8.32351 11.4619 8.32351C9.89711 8.32351 8.62858 9.59203 8.62858 11.1568C8.62858 12.7216 9.89711 13.9902 11.4619 13.9902C13.0267 13.9902 14.2952 12.7216 14.2952 11.1568ZM10.7952 9.65684C10.7952 9.28865 11.0937 8.99017 11.4619 8.99017C11.8301 8.99017 12.1286 9.28865 12.1286 9.65684V10.8808L13.0999 11.8522C13.3602 12.1125 13.3603 12.5345 13.0999 12.7949C12.8396 13.0552 12.4176 13.0552 12.1572 12.7949L10.9906 11.6282C10.8656 11.5032 10.7953 11.3335 10.7952 11.1568V9.65684ZM12.9619 5.65684V4.32351C12.9619 3.95531 12.6635 3.65684 12.2952 3.65684H3.96191C3.59372 3.65684 3.29525 3.95532 3.29525 4.32351V11.9902C3.29525 12.3584 3.59372 12.6568 3.96191 12.6568H5.96191C6.3301 12.6568 6.62858 12.9553 6.62858 13.3235C6.62858 13.6917 6.3301 13.9902 5.96191 13.9902H3.96191C2.85735 13.9902 1.96191 13.0948 1.96191 11.9902V4.32351C1.96191 3.21894 2.85734 2.32351 3.96191 2.32351H4.62858V1.65684C4.62858 1.28865 4.92706 0.990173 5.29525 0.990173C5.66344 0.990173 5.96191 1.28865 5.96191 1.65684V2.32351H10.2952V1.65684C10.2952 1.28865 10.5937 0.990173 10.9619 0.990173C11.3301 0.990173 11.6286 1.28865 11.6286 1.65684V2.32351H12.2952C13.3998 2.32351 14.2952 3.21894 14.2952 4.32351V5.65684C14.2952 6.02503 13.9968 6.32351 13.6286 6.32351C13.2604 6.32351 12.9619 6.02503 12.9619 5.65684ZM15.6286 11.1568C15.6286 13.458 13.7631 15.3235 11.4619 15.3235C9.16073 15.3235 7.29525 13.458 7.29525 11.1568C7.29525 8.85565 9.16073 6.99017 11.4619 6.99017C13.7631 6.99017 15.6286 8.85565 15.6286 11.1568Z" fill="currentColor"/>
</svg>
