<svg viewBox="0 0 16 16" fill="none" xmlns="http://www.w3.org/2000/svg">
<path d="M10.6286 9.65684H7.62858V12.6568H9.96191C10.3301 12.6568 10.6286 12.3584 10.6286 11.9902V9.65684ZM12.9619 3.65684C12.9619 3.28865 12.6635 2.99018 12.2952 2.99018H9.96191V5.99018H12.9619V3.65684ZM3.29525 11.9902C3.29525 12.3584 3.59372 12.6568 3.96191 12.6568H6.29525V9.65684H3.29525V11.9902ZM11.9619 11.9902C11.9619 13.0948 11.0665 13.9902 9.96191 13.9902H3.96191C2.85735 13.9902 1.96191 13.0948 1.96191 11.9902V5.99018C1.96191 4.88561 2.85734 3.99018 3.96191 3.99018H6.96191C7.3301 3.99018 7.62858 4.28866 7.62858 4.65684V8.32351H11.2952C11.6634 8.32351 11.9619 8.62199 11.9619 8.99018V11.9902ZM3.29525 8.32351H6.29525V5.32351H3.96191C3.59372 5.32351 3.29525 5.62199 3.29525 5.99018V8.32351ZM14.2952 6.65684C14.2952 7.02503 13.9968 7.32351 13.6286 7.32351H9.29525C8.92706 7.32351 8.62858 7.02503 8.62858 6.65684V2.32351C8.62858 1.95532 8.92706 1.65685 9.29525 1.65685H12.2952C13.3998 1.65685 14.2952 2.55228 14.2952 3.65684V6.65684Z" fill="currentColor"/>
</svg>
