<svg viewBox="0 0 16 16" fill="none" xmlns="http://www.w3.org/2000/svg">
<path d="M12.6667 10.2198V5.77972C12.6667 5.53886 12.5367 5.31641 12.3268 5.19834L8.32682 2.94899V2.94834C8.12397 2.83429 7.87603 2.83429 7.67318 2.94834V2.94899L3.67318 5.19834C3.46326 5.31641 3.33333 5.53887 3.33333 5.77972V10.2205C3.33341 10.4612 3.46329 10.6831 3.67318 10.8012L7.67318 13.0512C7.8761 13.1653 8.12394 13.1653 8.32682 13.0512L12.3268 10.8012C12.5367 10.6832 12.6667 10.4607 12.6667 10.2198ZM9.33333 7.99977C9.33324 7.26344 8.73636 6.66644 8 6.66644C7.26364 6.66644 6.66676 7.26344 6.66667 7.99977C6.66667 8.73618 7.26359 9.3331 8 9.3331C8.73641 9.3331 9.33333 8.73618 9.33333 7.99977ZM10.6667 7.99977C10.6667 9.47256 9.47279 10.6664 8 10.6664C6.52721 10.6664 5.33333 9.47256 5.33333 7.99977C5.33342 6.52706 6.52727 5.3331 8 5.3331C9.47274 5.3331 10.6666 6.52706 10.6667 7.99977ZM14 10.2198C14 10.8972 13.6574 11.5252 13.0957 11.893L12.9805 11.9633L8.98047 14.2133C8.37167 14.5558 7.62828 14.5557 7.01953 14.2133L3.01953 11.9633C2.38989 11.6091 2.00007 10.943 2 10.2205V5.77972C2 5.05717 2.38977 4.39046 3.01953 4.03623L7.01953 1.78688C7.62834 1.44441 8.37166 1.44441 8.98047 1.78688L12.9805 4.03623C13.6103 4.39047 14 5.05718 14 5.77972V10.2198Z" fill="currentColor"/>
</svg>
