<svg viewBox="0 0 20 20" fill="none" xmlns="http://www.w3.org/2000/svg">
<path d="M2.5 6.66667V5C2.5 3.61929 3.61929 2.5 5 2.5H6.66667C7.1269 2.5 7.5 2.8731 7.5 3.33333C7.5 3.79357 7.1269 4.16667 6.66667 4.16667H5C4.53976 4.16667 4.16667 4.53976 4.16667 5V6.66667C4.16667 7.1269 3.79357 7.5 3.33333 7.5C2.8731 7.5 2.5 7.1269 2.5 6.66667Z" fill="currentColor"/>
<path d="M15.8333 6.66667V5C15.8333 4.53975 15.4603 4.16667 15 4.16667H13.3333C12.8731 4.16667 12.5 3.79357 12.5 3.33333C12.5 2.8731 12.8731 2.5 13.3333 2.5H15C16.3807 2.5 17.5 3.6193 17.5 5V6.66667C17.5 7.1269 17.1269 7.5 16.6667 7.5C16.2064 7.5 15.8333 7.1269 15.8333 6.66667Z" fill="currentColor"/>
<path d="M2.5 15V13.3333C2.5 12.8731 2.8731 12.5 3.33333 12.5C3.79357 12.5 4.16667 12.8731 4.16667 13.3333V15C4.16667 15.4603 4.53975 15.8333 5 15.8333H6.66667C7.1269 15.8333 7.5 16.2064 7.5 16.6667C7.5 17.1269 7.1269 17.5 6.66667 17.5H5C3.6193 17.5 2.5 16.3807 2.5 15Z" fill="currentColor"/>
<path d="M12.5 7.5C12.9602 7.5 13.3333 7.8731 13.3333 8.33333C13.3333 8.79357 12.9602 9.16667 12.5 9.16667H7.5C7.03976 9.16667 6.66667 8.79357 6.66667 8.33333C6.66667 7.8731 7.03976 7.5 7.5 7.5H12.5Z" fill="currentColor"/>
<path d="M10.8333 10.8333C11.2936 10.8333 11.6667 11.2064 11.6667 11.6667C11.6667 12.1269 11.2936 12.5 10.8333 12.5H7.5C7.03976 12.5 6.66667 12.1269 6.66667 11.6667C6.66667 11.2064 7.03976 10.8333 7.5 10.8333H10.8333Z" fill="currentColor"/>
<path d="M16.0337 13.4877L15.453 11.9777C15.3809 11.7903 15.2008 11.6667 15 11.6667C14.7992 11.6667 14.6191 11.7903 14.547 11.9777L13.9663 13.4877C13.8817 13.7077 13.7077 13.8817 13.4877 13.9663L11.9777 14.547C11.7903 14.6191 11.6667 14.7992 11.6667 15C11.6667 15.2008 11.7903 15.3809 11.9777 15.453L13.4877 16.0337C13.7077 16.1183 13.8817 16.2922 13.9663 16.5123L14.547 18.0222C14.6191 18.2097 14.7992 18.3333 15 18.3333C15.2008 18.3333 15.3809 18.2097 15.453 18.0222L16.0337 16.5123C16.1183 16.2922 16.2922 16.1183 16.5123 16.0337L18.0222 15.453C18.2097 15.3809 18.3333 15.2008 18.3333 15C18.3333 14.7992 18.2097 14.6191 18.0222 14.547L16.5123 13.9663C16.2922 13.8817 16.1183 13.7077 16.0337 13.4877Z" fill="currentColor"/>
</svg>
