<svg xmlns="http://www.w3.org/2000/svg" viewBox="0 0 24 24" fill="none">
  <path d="M12 0C5.373 0 0 5.373 0 12s5.373 12 12 12 12-5.373 12-12S18.627 0 12 0z" fill="#2AABEE"/>
  <path d="M5.432 11.873l8.772-3.556c.415-.154 1.837-.764 1.837-.764s.654-.254.6.363c-.018.257-.163 1.636-.308 3.115l-.882 6.354s-.073.836-.69.982c-.618.145-.636-.2-1.636-.927-.163-.118-1.636-1.054-1.963-1.309-.09-.072-.2-.218.018-.39 0 0 3.27-2.926 3.36-3.234.012-.039.023-.184-.172-.184-.195 0-.49.09-.49.09L8.432 14.63s-.6.39-1.145.018c0 0-.763-.29-.836-.327-.073-.036-.981-.418-.018-.8z" fill="#fff"/>
</svg>
