<svg xmlns="http://www.w3.org/2000/svg" viewBox="0 0 48 48">
  <path fill="#4caf50" d="M45 16.2l-5 2.75-5 4.75V37h7a2 2 0 0 0 2-2V18.45a2 2 0 0 0-1-1.73c0 0 0 0 0 0z"/>
  <path fill="#1e88e5" d="M3 16.2l3.615 2.083L13 23.7V37H6a2 2 0 0 1-2-2V18.45a2 2 0 0 1 1-1.73c0 0 0 0 0 0z"/>
  <polygon fill="#e53935" points="35,11.2 24,19.45 13,11.2 12,17 13,23.7 24,31.95 35,23.7 36,17"/>
  <path fill="#c62828" d="M3 12.298V16.2l10 7.5V11.2L9.876 8.859C9.132 8.301 8.228 8 7.298 8h0C4.924 8 3 9.924 3 12.298z"/>
  <path fill="#fbc02d" d="M45 12.298V16.2l-10 7.5V11.2l3.124-2.341C38.868 8.301 39.772 8 40.702 8h0C43.076 8 45 9.924 45 12.298z"/>
</svg>
