<svg viewBox="0 0 16 16" fill="none" xmlns="http://www.w3.org/2000/svg">
<path d="M13.3335 7.99992C13.3335 5.0544 10.9457 2.66659 8.00016 2.66659C5.05465 2.66659 2.66683 5.0544 2.66683 7.99992C2.66683 10.9455 5.05464 13.3333 8.00016 13.3333C10.9457 13.3333 13.3335 10.9455 13.3335 7.99992ZM7.3335 11.6666V11.2499C6.79758 11.1143 6.32466 10.8168 6.01644 10.3905C5.80074 10.0922 5.86729 9.67532 6.16553 9.45955C6.46386 9.24384 6.88076 9.31101 7.09652 9.60929C7.24134 9.80959 7.56452 9.99992 8.00016 9.99992H8.12191C8.75344 9.99986 9.00016 9.6136 9.00016 9.43026C9.00003 9.29874 8.90057 9.07812 8.56527 8.94393L6.94027 8.29419C6.22904 8.00969 5.66695 7.37434 5.66683 6.56958V6.51815C5.66699 5.54245 6.45997 4.89461 7.3335 4.71737V4.33325C7.3335 3.96506 7.63197 3.66659 8.00016 3.66659C8.36835 3.66659 8.66683 3.96506 8.66683 4.33325V4.74927C9.2028 4.88489 9.67565 5.18302 9.98389 5.60929C10.1996 5.90767 10.1325 6.32456 9.83415 6.54028C9.53583 6.75577 9.1195 6.68873 8.90381 6.39054C8.75902 6.19027 8.43582 5.99992 8.00016 5.99992H7.81527C7.21913 5.99992 7.00043 6.36274 7.00016 6.51815V6.56958C7.00029 6.7011 7.09975 6.92172 7.43506 7.05591L9.06006 7.70565C9.77126 7.99015 10.3334 8.62548 10.3335 9.43026C10.3335 10.4121 9.54868 11.0742 8.66683 11.2708V11.6666C8.66683 12.0348 8.36835 12.3333 8.00016 12.3333C7.63197 12.3333 7.3335 12.0348 7.3335 11.6666ZM14.6668 7.99992C14.6668 11.6818 11.6821 14.6666 8.00016 14.6666C4.31827 14.6666 1.3335 11.6818 1.3335 7.99992C1.3335 4.31802 4.31827 1.33325 8.00016 1.33325C11.6821 1.33325 14.6668 4.31802 14.6668 7.99992Z" fill="currentColor"/>
</svg>
